<svg xmlns="http://www.w3.org/2000/svg" width="800" height="520" viewBox="0 0 800 520" role="img" aria-label="Fine wool fabric illustration">
  <rect width="800" height="520" fill="#f5eee4"/>
  <rect width="800" height="520" fill="url(#bg)"/>
  <defs>
    <linearGradient id="bg" x1="0" x2="1" y1="0" y2="1">
      <stop offset="0%" stop-color="#f7eee2"/>
      <stop offset="100%" stop-color="#d9c3a2"/>
    </linearGradient>
    <pattern id="wool" width="100" height="100" patternUnits="userSpaceOnUse">
      <rect width="100" height="100" fill="#f5eee4"/>
      <path d="M0 50C12 35 24 25 40 25C58 25 70 40 80 50C90 60 95 70 100 80" stroke="#b88a5e" stroke-width="3" opacity="0.4" fill="none"/>
      <path d="M0 70C15 55 30 45 50 45C68 45 82 58 100 72" stroke="#d9b98b" stroke-width="2" opacity="0.3" fill="none"/>
    </pattern>
  </defs>
  <rect x="70" y="70" width="660" height="380" rx="18" fill="#ead6b6"/>
  <rect x="90" y="90" width="620" height="340" rx="14" fill="url(#wool)"/>
  <path d="M130 210C180 150 260 130 340 145C420 160 500 210 580 180C650 155 690 120 690 120" stroke="#7f5e3b" stroke-width="16" stroke-linecap="round" fill="none" opacity="0.65"/>
  <path d="M130 285C210 245 310 247 390 285C470 323 560 330 650 285" stroke="#a88557" stroke-width="14" stroke-linecap="round" fill="none" opacity="0.6"/>
  <text x="400" y="430" text-anchor="middle" font-family="Arial, sans-serif" font-size="42" font-weight="700" fill="#5c4630">Fine Wool</text>
</svg>